<svg xml:space="preserve" viewBox="0 0 100 100" y="0" x="0" xmlns="http://www.w3.org/2000/svg" id="Layer_1" version="1.1" style="height: 100%; width: 100%; background: transparent" width="296px" height="296px"><g class="ldl-scale" style="transform-origin: 50% 50%; transform: scale(0.8);"><g class="ldl-ani"><g class="ldl-layer"><g class="ldl-ani" style="transform-origin: 50px 50px; animation: 1.11111s linear -0.740741s infinite normal forwards running static-cae130e9-1e3e-46b2-bd97-d4b50faa68e1;"><path fill="#cccccb" d="M50 15.773c-18.872 0-34.227 15.354-34.227 34.227S31.128 84.227 50 84.227 84.227 68.872 84.227 50 68.872 15.773 50 15.773zm26.666 37.791H36.975l16.594 16.594-5.039 5.039L23.333 50l25.196-25.196 5.039 5.039-16.593 16.594h39.691v7.127z" style="fill: rgb(210, 210, 203);"></path></g></g><g class="ldl-layer"><g class="ldl-ani" style="transform-origin: 50px 50px; animation: 1.11111s linear -0.925926s infinite normal forwards running static-cae130e9-1e3e-46b2-bd97-d4b50faa68e1;"><path d="M53.569 29.843l-5.04-5.039L23.333 50l25.196 25.197 5.04-5.04-16.594-16.593h39.691v-7.127H36.975z" fill="#999998" style="fill: rgb(77, 105, 93);"></path></g></g><g class="ldl-layer"><g class="ldl-ani" style="transform-origin: 50px 50px; animation: 1.11111s linear -1.11111s infinite normal forwards running static-cae130e9-1e3e-46b2-bd97-d4b50faa68e1;"><path fill="#323232" d="M50 10c-22.056 0-40 17.944-40 40s17.944 40 40 40 40-17.944 40-40-17.944-40-40-40zm0 74.227c-18.872 0-34.227-15.354-34.227-34.227S31.128 15.773 50 15.773 84.227 31.128 84.227 50 68.872 84.227 50 84.227z" style="fill: rgb(131, 167, 157);"></path></g></g><metadata xmlns:d="https://loading.io/stock/">
<d:name>left</d:name>
<d:tags>west,back,undo,previous,direction,way,turn,circle,left,arrow</d:tags>
<d:license>by</d:license>
<d:slug>uk0mcs</d:slug>
</metadata></g></g></svg>