<svg xmlns="http://www.w3.org/2000/svg" xmlns:xlink="http://www.w3.org/1999/xlink" style="margin: auto; background: rgb(255, 255, 255); display: block; z-index: 1; position: relative; shape-rendering: auto;" width="500" height="350" preserveAspectRatio="xMidYMid" viewBox="0 0 500 350">
<g transform=""><path id="path0" d="M 464.5238926247549 234.9594056438275 c 0 20.017816231864945 -4.89797631205206 5.7497982793654625 -10.647774591417523 5.7497982793654625 S 443.22834344191983 254.97722187569244 443.22834344191983 234.9594056438275 s 4.89797631205206 -5.7497982793654625 10.647774591417523 -5.7497982793654625 S 464.5238926247549 214.94158941196255 464.5238926247549 234.9594056438275 z" fill="none" stroke="none"/>
<circle cx="0" cy="0" r="6.636207709795123" fill="#de9dd6">
  <animateMotion begin="-5.402655890077561s" dur="10s" repeatCount="indefinite">
    <mpath xlink:href="#path0"/>
  </animateMotion>
</circle><path id="path1" d="M 398.82329313358633 154.21806359337333 c 0 30.58252974993728 -7.482959406899546 8.78434365157773 -16.267303058477275 8.78434365157773 S 366.28868701663174 184.8005933433106 366.28868701663174 154.21806359337333 s 7.482959406899546 -8.78434365157773 16.267303058477275 -8.78434365157773 S 398.82329313358633 123.63553384343605 398.82329313358633 154.21806359337333 z" fill="none" stroke="none"/>
<circle cx="0" cy="0" r="7.8866954919899435" fill="#e0ff77">
  <animateMotion begin="-0.7469029840989255s" dur="10s" repeatCount="indefinite">
    <mpath xlink:href="#path1"/>
  </animateMotion>
</circle><path id="path2" d="M 412.6078757023884 292.5349772426242 c 0 31.719898409595036 -7.761251738517934 9.111034649564532 -16.872286388082465 9.111034649564532 S 378.8633029262235 324.25487565221925 378.8633029262235 292.5349772426242 s 7.761251738517934 -9.111034649564532 16.872286388082465 -9.111034649564532 S 412.6078757023884 260.8150788330292 412.6078757023884 292.5349772426242 z" fill="none" stroke="none"/>
<circle cx="0" cy="0" r="4.620989905120926" fill="#de9dd6">
  <animateMotion begin="-0.1511828641728111s" dur="10s" repeatCount="indefinite">
    <mpath xlink:href="#path2"/>
  </animateMotion>
</circle><path id="path3" d="M 265.3070630039126 58.2559955138074 c 0 22.360654120299248 -5.471223880498751 6.422741077107231 -11.893964957605982 6.422741077107231 S 241.51913308870064 80.61664963410665 241.51913308870064 58.2559955138074 s 5.471223880498751 -6.422741077107231 11.893964957605982 -6.422741077107231 S 265.3070630039126 35.89534139350815 265.3070630039126 58.2559955138074 z" fill="none" stroke="none"/>
<circle cx="0" cy="0" r="7.644208965350321" fill="#51cacc">
  <animateMotion begin="-7.82610169106669s" dur="10s" repeatCount="indefinite">
    <mpath xlink:href="#path3"/>
  </animateMotion>
</circle><path id="path4" d="M 301.0721597975902 178.37170127965362 c 0 37.036017955096774 -9.062004393268358 10.638005157315032 -19.700009550583392 10.638005157315032 S 261.6721406964234 215.4077192347504 261.6721406964234 178.37170127965362 s 9.062004393268358 -10.638005157315032 19.700009550583392 -10.638005157315032 S 301.0721597975902 141.33568332455684 301.0721597975902 178.37170127965362 z" fill="none" stroke="none"/>
<circle cx="0" cy="0" r="6.245518484932514" fill="#51cacc">
  <animateMotion begin="-2.5196369079325094s" dur="10s" repeatCount="indefinite">
    <mpath xlink:href="#path4"/>
  </animateMotion>
</circle><path id="path5" d="M 90.3960179742626 192.68398194133596 c 0 36.54095420882101 -8.940871774498756 10.495805996150716 -19.436677770649474 10.495805996150716 S 51.52266243296366 229.22493615015696 51.52266243296366 192.68398194133596 s 8.940871774498756 -10.495805996150716 19.436677770649474 -10.495805996150716 S 90.3960179742626 156.14302773251495 90.3960179742626 192.68398194133596 z" fill="none" stroke="none"/>
<circle cx="0" cy="0" r="7.849223811801136" fill="#9df871">
  <animateMotion begin="-6.684622598095676s" dur="10s" repeatCount="indefinite">
    <mpath xlink:href="#path5"/>
  </animateMotion>
</circle><path id="path6" d="M 468.4140634186075 110.42308839705535 c 0 30.80275218576268 -7.536843619920655 8.84759903208077 -16.384442652001425 8.84759903208077 S 435.6451781146046 141.22584058281802 435.6451781146046 110.42308839705535 s 7.536843619920655 -8.84759903208077 16.384442652001425 -8.84759903208077 S 468.4140634186075 79.62033621129267 468.4140634186075 110.42308839705535 z" fill="none" stroke="none"/>
<circle cx="0" cy="0" r="4.343761268348013" fill="#de9dd6">
  <animateMotion begin="-2.7335074334729264s" dur="10s" repeatCount="indefinite">
    <mpath xlink:href="#path6"/>
  </animateMotion>
</circle><path id="path7" d="M 246.9559998735637 233.24547960404664 c 0 25.338697068736554 -6.199893963627028 7.278136392083904 -13.478030355710933 7.278136392083904 S 219.99993916214186 258.5841766727832 219.99993916214186 233.24547960404664 s 6.199893963627028 -7.278136392083904 13.478030355710933 -7.278136392083904 S 246.9559998735637 207.90678253531007 246.9559998735637 233.24547960404664 z" fill="none" stroke="none"/>
<circle cx="0" cy="0" r="7.289313753392392" fill="#9df871">
  <animateMotion begin="-7.543609599938508s" dur="10s" repeatCount="indefinite">
    <mpath xlink:href="#path7"/>
  </animateMotion>
</circle><path id="path8" d="M 94.44319276075596 37.90821156266311 c 0 23.178973635392506 -5.6714509958939106 6.657790299527634 -12.329241295421545 6.657790299527634 S 69.78471016991288 61.08718519805562 69.78471016991288 37.90821156266311 s 5.6714509958939106 -6.657790299527634 12.329241295421545 -6.657790299527634 S 94.44319276075596 14.729237927270606 94.44319276075596 37.90821156266311 z" fill="none" stroke="none"/>
<circle cx="0" cy="0" r="4.596220485664493" fill="#9df871">
  <animateMotion begin="-4.340748007737184s" dur="10s" repeatCount="indefinite">
    <mpath xlink:href="#path8"/>
  </animateMotion>
</circle><path id="path9" d="M 131.19980565988564 246.98959774401064 c 0 22.224503222827753 -5.437910363032322 6.3836339044292485 -11.82154426746157 6.3836339044292485 S 107.5567171249625 269.2141009668384 107.5567171249625 246.98959774401064 s 5.437910363032322 -6.3836339044292485 11.82154426746157 -6.3836339044292485 S 131.19980565988564 224.76509452118287 131.19980565988564 246.98959774401064 z" fill="none" stroke="none"/>
<circle cx="0" cy="0" r="7.238035639347363" fill="#51cacc">
  <animateMotion begin="-8.467966102200643s" dur="10s" repeatCount="indefinite">
    <mpath xlink:href="#path9"/>
  </animateMotion>
</circle><path id="path10" d="M 52.89384548398107 64.12345751531952 c 0 20.069120684009604 -4.91052952906618 5.764534664555951 -10.67506419362213 5.764534664555951 S 31.543717096736803 84.19257819932912 31.543717096736803 64.12345751531952 s 4.91052952906618 -5.764534664555951 10.67506419362213 -5.764534664555951 S 52.89384548398107 44.05433683130991 52.89384548398107 64.12345751531952 z" fill="none" stroke="none"/>
<circle cx="0" cy="0" r="6.983493658697949" fill="#ff708e">
  <animateMotion begin="-2.9429563736891633s" dur="10s" repeatCount="indefinite">
    <mpath xlink:href="#path10"/>
  </animateMotion>
</circle><path id="path11" d="M 274.58634078782774 295.9104676340222 c 0 34.39061233935505 -8.414724295799639 9.87815460811262 -18.29287890391226 9.87815460811262 S 238.00058298000323 330.3010799733773 238.00058298000323 295.9104676340222 s 8.414724295799639 -9.87815460811262 18.29287890391226 -9.87815460811262 S 274.58634078782774 261.51985529466714 274.58634078782774 295.9104676340222 z" fill="none" stroke="none"/>
<circle cx="0" cy="0" r="7.540837914078185" fill="#9df871">
  <animateMotion begin="-7.088397398976333s" dur="10s" repeatCount="indefinite">
    <mpath xlink:href="#path11"/>
  </animateMotion>
</circle><path id="path12" d="M 137.40351851648265 128.53362964275325 c 0 23.94448418286143 -5.858756768146946 6.877670988694241 -12.736427756841186 6.877670988694241 S 111.93066300280029 152.47811382561468 111.93066300280029 128.53362964275325 s 5.858756768146946 -6.877670988694241 12.736427756841186 -6.877670988694241 S 137.40351851648265 104.58914545989182 137.40351851648265 128.53362964275325 z" fill="none" stroke="none"/>
<circle cx="0" cy="0" r="6.407931781878242" fill="#de9dd6">
  <animateMotion begin="-2.682043751732108s" dur="10s" repeatCount="indefinite">
    <mpath xlink:href="#path12"/>
  </animateMotion>
</circle><path id="path13" d="M 346.11763980665046 57.425399059330275 c 0 26.551922715265047 -6.496747047352085 7.626616099065493 -14.123363146417578 7.626616099065493 S 317.87091351381525 83.97732177459532 317.87091351381525 57.425399059330275 s 6.496747047352085 -7.626616099065493 14.123363146417578 -7.626616099065493 S 346.11763980665046 30.873476344065228 346.11763980665046 57.425399059330275 z" fill="none" stroke="none"/>
<circle cx="0" cy="0" r="4.027870690186804" fill="#51cacc">
  <animateMotion begin="-2.649503058039237s" dur="10s" repeatCount="indefinite">
    <mpath xlink:href="#path13"/>
  </animateMotion>
</circle><path id="path14" d="M 501.7377449319586 230.60115772818475 c 0 27.37597929983105 -6.698377913788448 7.863313203142962 -14.56169111693141 7.863313203142962 S 472.6143626980958 257.9771370280158 472.6143626980958 230.60115772818475 s 6.698377913788448 -7.863313203142962 14.56169111693141 -7.863313203142962 S 501.7377449319586 203.2251784283537 501.7377449319586 230.60115772818475 z" fill="none" stroke="none"/>
<circle cx="0" cy="0" r="7.199444995509243" fill="#e0ff77">
  <animateMotion begin="-2.6460857467576675s" dur="10s" repeatCount="indefinite">
    <mpath xlink:href="#path14"/>
  </animateMotion>
</circle><path id="path15" d="M 123.66949962699556 340.0752568079261 c 0 36.73015631275312 -8.987165906311931 10.550151281322703 -19.537317187634635 10.550151281322703 S 84.59486525172628 376.80541312067925 84.59486525172628 340.0752568079261 s 8.987165906311931 -10.550151281322703 19.537317187634635 -10.550151281322703 S 123.66949962699556 303.34510049517297 123.66949962699556 340.0752568079261 z" fill="none" stroke="none"/>
<circle cx="0" cy="0" r="6.833135551165933" fill="#e0ff77">
  <animateMotion begin="-3.477025199384847s" dur="10s" repeatCount="indefinite">
    <mpath xlink:href="#path15"/>
  </animateMotion>
</circle><path id="path16" d="M 26.762988926159597 183.00990495608994 c 0 36.484581709751005 -8.927078503449712 10.479613895354012 -19.406692398803724 10.479613895354012 S -12.05039587144785 219.49448666584095 -12.05039587144785 183.00990495608994 s 8.927078503449712 -10.479613895354012 19.406692398803724 -10.479613895354012 S 26.762988926159597 146.52532324633893 26.762988926159597 183.00990495608994 z" fill="none" stroke="none"/>
<circle cx="0" cy="0" r="6.751673502370236" fill="#9df871">
  <animateMotion begin="-4.651151174062854s" dur="10s" repeatCount="indefinite">
    <mpath xlink:href="#path16"/>
  </animateMotion>
</circle><path id="path17" d="M 107.10471222371623 303.7529120113655 c 0 27.205157170761243 -6.656581009867112 7.814247272452698 -14.47082828231981 7.814247272452698 S 78.1630556590766 330.95806918212674 78.1630556590766 303.7529120113655 s 6.656581009867112 -7.814247272452698 14.47082828231981 -7.814247272452698 S 107.10471222371623 276.5477548406042 107.10471222371623 303.7529120113655 z" fill="none" stroke="none"/>
<circle cx="0" cy="0" r="7.3606188966557" fill="#ff708e">
  <animateMotion begin="-7.04658471291239s" dur="10s" repeatCount="indefinite">
    <mpath xlink:href="#path17"/>
  </animateMotion>
</circle><path id="path18" d="M 37.07529409339515 233.24348592344896 c 0 29.887169878152417 -7.31281816167559 8.584612624575694 -15.897430786251284 8.584612624575694 S 5.280432520892582 263.1306558016014 5.280432520892582 233.24348592344896 s 7.31281816167559 -8.584612624575694 15.897430786251284 -8.584612624575694 S 37.07529409339515 203.35631604529655 37.07529409339515 233.24348592344896 z" fill="none" stroke="none"/>
<circle cx="0" cy="0" r="4.766600847571331" fill="#de9dd6">
  <animateMotion begin="-2.943182568910145s" dur="10s" repeatCount="indefinite">
    <mpath xlink:href="#path18"/>
  </animateMotion>
</circle><path id="path19" d="M 184.62123779414597 318.39430767969486 c 0 30.16800088761881 -7.381532132076942 8.66527685069902 -16.04680898277596 8.66527685069902 S 152.52761982859406 348.56230856731366 152.52761982859406 318.39430767969486 s 7.381532132076942 -8.66527685069902 16.04680898277596 -8.66527685069902 S 184.62123779414597 288.22630679207606 184.62123779414597 318.39430767969486 z" fill="none" stroke="none"/>
<circle cx="0" cy="0" r="4.890716067451898" fill="#9df871">
  <animateMotion begin="-6.922790379009164s" dur="10s" repeatCount="indefinite">
    <mpath xlink:href="#path19"/>
  </animateMotion>
</circle><path id="path20" d="M 97.79530371957144 260.8424816143808 c 0 37.44732484185728 -9.162643312369333 10.756146497129219 -19.918789809498552 10.756146497129219 S 57.95772410057434 298.28980645623807 57.95772410057434 260.8424816143808 s 9.162643312369333 -10.756146497129219 19.918789809498552 -10.756146497129219 S 97.79530371957144 223.39515677252353 97.79530371957144 260.8424816143808 z" fill="none" stroke="none"/>
<circle cx="0" cy="0" r="5.209445859656978" fill="#51cacc">
  <animateMotion begin="-2.7842860998444956s" dur="10s" repeatCount="indefinite">
    <mpath xlink:href="#path20"/>
  </animateMotion>
</circle><path id="path21" d="M 304.4856280948466 138.75595628101914 c 0 34.33444958544051 -8.400982345373741 9.862022753264826 -18.263005098638565 9.862022753264826 S 267.95961789756944 173.09040586645966 267.95961789756944 138.75595628101914 s 8.400982345373741 -9.862022753264826 18.263005098638565 -9.862022753264826 S 304.4856280948466 104.42150669557863 304.4856280948466 138.75595628101914 z" fill="none" stroke="none"/>
<circle cx="0" cy="0" r="7.131681051998438" fill="#de9dd6">
  <animateMotion begin="-7.648757144503393s" dur="10s" repeatCount="indefinite">
    <mpath xlink:href="#path21"/>
  </animateMotion>
</circle><path id="path22" d="M 157.9981750395506 128.534902745232 c 0 28.261187796624853 -6.914971482152889 8.117575218179478 -15.032546700332368 8.117575218179478 S 127.93308163888585 156.79609054185684 127.93308163888585 128.534902745232 s 6.914971482152889 -8.117575218179478 15.032546700332368 -8.117575218179478 S 157.9981750395506 100.27371494860714 157.9981750395506 128.534902745232 z" fill="none" stroke="none"/>
<circle cx="0" cy="0" r="6.2646621562845475" fill="#9df871">
  <animateMotion begin="-2.810604110269037s" dur="10s" repeatCount="indefinite">
    <mpath xlink:href="#path22"/>
  </animateMotion>
</circle><path id="path23" d="M 340.3604388069979 117.06079306297022 c 0 20.201912557872895 -4.94302115777741 5.802677011303916 -10.745698169081326 5.802677011303916 S 318.86904246883523 137.26270562084312 318.86904246883523 117.06079306297022 s 4.94302115777741 -5.802677011303916 10.745698169081326 -5.802677011303916 S 340.3604388069979 96.85888050509732 340.3604388069979 117.06079306297022 z" fill="none" stroke="none"/>
<circle cx="0" cy="0" r="7.739792304581866" fill="#9df871">
  <animateMotion begin="-1.283147684069228s" dur="10s" repeatCount="indefinite">
    <mpath xlink:href="#path23"/>
  </animateMotion>
</circle><path id="path24" d="M 168.88378469028962 214.07595795423066 c 0 32.652475993971414 -7.9894356155461965 9.378902679119449 -17.368338294665648 9.378902679119449 S 134.14710810095832 246.72843394820208 134.14710810095832 214.07595795423066 s 7.9894356155461965 -9.378902679119449 17.368338294665648 -9.378902679119449 S 168.88378469028962 181.42348196025924 168.88378469028962 214.07595795423066 z" fill="none" stroke="none"/>
<circle cx="0" cy="0" r="4.206016322416145" fill="#de9dd6">
  <animateMotion begin="-7.04290071253574s" dur="10s" repeatCount="indefinite">
    <mpath xlink:href="#path24"/>
  </animateMotion>
</circle><path id="path25" d="M 174.55639145265687 288.4636170502075 c 0 28.374834580757934 -6.942778674015238 8.150218443409194 -15.092997117424432 8.150218443409194 S 144.370397217808 316.83845163096544 144.370397217808 288.4636170502075 s 6.942778674015238 -8.150218443409194 15.092997117424432 -8.150218443409194 S 174.55639145265687 260.0887824694496 174.55639145265687 288.4636170502075 z" fill="none" stroke="none"/>
<circle cx="0" cy="0" r="4.877171471279329" fill="#51cacc">
  <animateMotion begin="-8.585901919755338s" dur="10s" repeatCount="indefinite">
    <mpath xlink:href="#path25"/>
  </animateMotion>
</circle><path id="path26" d="M 239.5233664382592 133.63088016789246 c 0 35.42106100309088 -8.666855351820105 10.174134543440996 -18.840989895261103 10.174134543440996 S 201.841386647737 169.05194117098333 201.841386647737 133.63088016789246 s 8.666855351820105 -10.174134543440996 18.840989895261103 -10.174134543440996 S 239.5233664382592 98.20981916480159 239.5233664382592 133.63088016789246 z" fill="none" stroke="none"/>
<circle cx="0" cy="0" r="7.352056724470119" fill="#9df871">
  <animateMotion begin="-3.198081211934429s" dur="10s" repeatCount="indefinite">
    <mpath xlink:href="#path26"/>
  </animateMotion>
</circle><path id="path27" d="M 249.34581606966307 22.524819065598592 c 0 28.909045473514027 -7.0734898499023675 8.303661997711476 -15.377151847613844 8.303661997711476 S 218.59151237443538 51.43386453911262 218.59151237443538 22.524819065598592 s 7.0734898499023675 -8.303661997711476 15.377151847613844 -8.303661997711476 S 249.34581606966307 -6.384226407915435 249.34581606966307 22.524819065598592 z" fill="none" stroke="none"/>
<circle cx="0" cy="0" r="7.293346109382834" fill="#51cacc">
  <animateMotion begin="-3.635270207745576s" dur="10s" repeatCount="indefinite">
    <mpath xlink:href="#path27"/>
  </animateMotion>
</circle><path id="path28" d="M 373.6965671415819 91.09447248069543 c 0 19.39566461418629 -4.74574772474771 5.571095155138616 -10.316842879886325 5.571095155138616 S 353.06288138180923 110.49013709488172 353.06288138180923 91.09447248069543 s 4.74574772474771 -5.571095155138616 10.316842879886325 -5.571095155138616 S 373.6965671415819 71.69880786650914 373.6965671415819 91.09447248069543 z" fill="none" stroke="none"/>
<circle cx="0" cy="0" r="5.040205474760767" fill="#9df871">
  <animateMotion begin="-7.665407360938512s" dur="10s" repeatCount="indefinite">
    <mpath xlink:href="#path28"/>
  </animateMotion>
</circle><path id="path29" d="M 297.4022433712858 290.46492790288033 c 0 32.85378799118968 -8.03869280635492 9.436726337894909 -17.475419144249827 9.436726337894909 S 262.45140508278615 323.31871589407 262.45140508278615 290.46492790288033 s 8.03869280635492 -9.436726337894909 17.475419144249827 -9.436726337894909 S 297.4022433712858 257.61113991169066 297.4022433712858 290.46492790288033 z" fill="none" stroke="none"/>
<circle cx="0" cy="0" r="4.76580996967193" fill="#9df871">
  <animateMotion begin="-8.946715083233848s" dur="10s" repeatCount="indefinite">
    <mpath xlink:href="#path29"/>
  </animateMotion>
</circle></g>
<style type="text/css">.lded &gt; .content, .lded &gt; .content &gt; .inner { height: 100%; }
.lded &gt; .content &gt; .inner &gt; .viewer { width: 100%; height: 100%; max-width: 100%; }
.lded &gt; .content &gt; .inner &gt; .panel {
  position: absolute;
  bottom: 50px;
  left: 0;
  right: 0;
  opacity: 0.3;
}
.lded &gt; .content &gt; .inner &gt; .panel:hover { opacity: 1; }
.lded &gt; .content &gt; .inner &gt; .ctrl {
  position: absolute;
  bottom: 13px;
  left: 0;
  right: 0;
  margin: auto;
}
.lded &gt; .content &gt; .inner &gt; .ctrl:hover {
  z-index: 10;
}
#editor &gt; .inner &gt; .title {
  position: absolute;
  bottom: 195px;
  left: 0;
  right: 0;
  z-index: 11;
}
#editor &gt; .inner &gt; .title &gt; a:first-child {
  margin-left: 0!important;
#editor .lded .viewer { border-radius: 0 }</style></svg>