<svg viewBox="0 0 100 100" xmlns="http://www.w3.org/2000/svg" style="height: 100%; width: 100%; background: transparent;" width="304px" height="304px"><g class="ldl-scale" style="transform-origin: 50% 50%; transform: scale(0.8);"><g class="ldl-ani"><g class="ldl-layer"><g class="ldl-ani" style="transform: scale(0.91); transform-origin: 50px 50px; animation: 1.11111s linear -1.11111s infinite normal forwards running breath-319e45f2-00bb-40c1-9242-217b8d354682;"><path fill="#f5e169" d="M85.197 39.802l-21.59-3.137a2.395 2.395 0 0 1-1.804-1.31l-9.655-19.564c-.879-1.78-3.417-1.78-4.296 0l-9.655 19.564a2.394 2.394 0 0 1-1.804 1.31l-21.59 3.137c-1.965.286-2.749 2.7-1.328 4.086l15.623 15.228c.565.55.822 1.343.689 2.12l-3.688 21.503c-.336 1.957 1.718 3.449 3.476 2.525l19.311-10.152a2.394 2.394 0 0 1 2.229 0l19.311 10.152c1.757.924 3.811-.568 3.476-2.525l-3.688-21.503a2.394 2.394 0 0 1 .689-2.12l15.623-15.228c1.42-1.386.636-3.801-1.329-4.086z" style="fill: rgb(245, 225, 105);"></path></g></g><metadata xmlns:d="https://loading.io/stock/">
<d:name>star</d:name>
<d:tags>star,favorite,bookmark,asteriod,rank,review,tag</d:tags>
<d:license>by</d:license>
<d:slug>r9kehk</d:slug>
</metadata></g></g>
<style id="breath-319e45f2-00bb-40c1-9242-217b8d354682" data-anikit="">@keyframes breath-319e45f2-00bb-40c1-9242-217b8d354682
{
  0% {
    animation-timing-function: cubic-bezier(0.9647,0.2413,-0.0705,0.7911);
    transform: scale(0.9099999999999999);
  }
  51% {
    animation-timing-function: cubic-bezier(0.9226,0.2631,-0.0308,0.7628);
    transform: scale(1.02994);
  }
  100% {
    transform: scale(0.9099999999999999);
  }
}</style></svg>