<svg xmlns="http://www.w3.org/2000/svg" width="80px" height="80px" viewBox="0 0 100 100" preserveAspectRatio="xMidYMid" class="lds-sunny">
    <circle cx="50" cy="50" r="25" ng-attr-fill="{{config.c1}}" fill="#fac090"/>
    <g transform="rotate(73.5704 50 50)">
      <path d="M43 23L57 23L50 10Z" transform="rotate(30 50 50)" ng-attr-fill="{{config.c2}}" fill="#ff7c81"/>
      <path d="M43 23L57 23L50 10Z" transform="rotate(60 50 50)" ng-attr-fill="{{config.c2}}" fill="#ff7c81"/>
      <path d="M43 23L57 23L50 10Z" transform="rotate(90 50 50)" ng-attr-fill="{{config.c2}}" fill="#ff7c81"/>
      <path d="M43 23L57 23L50 10Z" transform="rotate(120 50 50)" ng-attr-fill="{{config.c2}}" fill="#ff7c81"/>
      <path d="M43 23L57 23L50 10Z" transform="rotate(150 50 50)" ng-attr-fill="{{config.c2}}" fill="#ff7c81"/>
      <path d="M43 23L57 23L50 10Z" transform="rotate(180 50 50)" ng-attr-fill="{{config.c2}}" fill="#ff7c81"/>
      <path d="M43 23L57 23L50 10Z" transform="rotate(210 50 50)" ng-attr-fill="{{config.c2}}" fill="#ff7c81"/>
      <path d="M43 23L57 23L50 10Z" transform="rotate(240 50 50)" ng-attr-fill="{{config.c2}}" fill="#ff7c81"/>
      <path d="M43 23L57 23L50 10Z" transform="rotate(270 50 50)" ng-attr-fill="{{config.c2}}" fill="#ff7c81"/>
      <path d="M43 23L57 23L50 10Z" transform="rotate(300 50 50)" ng-attr-fill="{{config.c2}}" fill="#ff7c81"/>
      <path d="M43 23L57 23L50 10Z" transform="rotate(330 50 50)" ng-attr-fill="{{config.c2}}" fill="#ff7c81"/>
      <path d="M43 23L57 23L50 10Z" transform="rotate(360 50 50)" ng-attr-fill="{{config.c2}}" fill="#ff7c81"/>
      <animateTransform attributeName="transform" type="rotate" calcMode="linear" values="0 50 50;180 50 50" keyTimes="0;1" dur="1.3s" begin="0s" repeatCount="indefinite"/>
    </g>
  </svg>