<svg viewBox="0 0 100 100" xmlns="http://www.w3.org/2000/svg" style="height: 100%; width: 100%; background: transparent;" width="193px" height="193px"><g class="ldl-scale" style="transform-origin: 50% 50%; transform: scale(1);"><g class="ldl-ani"><g class="ldl-layer"><g class="ldl-ani" style="transform-origin: 50px 50px; transform: scale(0.91); animation: 0.729927s linear -0.456204s infinite normal forwards running breath-44e900a2-aa91-4206-8ff7-fed96fb043b7;"><path fill="none" d="M49.181 75h1.638a2.366 2.366 0 0 0-1.638 0z"></path></g></g><g class="ldl-layer"><g class="ldl-ani" style="transform-origin: 50px 50px; transform: scale(0.91); animation: 0.729927s linear -0.547445s infinite normal forwards running breath-44e900a2-aa91-4206-8ff7-fed96fb043b7;"><path fill="#e0e0e0" d="M50.819 75h21.755l-2.361-13.764a2.394 2.394 0 0 1 .689-2.12l15.623-15.228c1.422-1.386.637-3.8-1.328-4.086l-21.59-3.137a2.395 2.395 0 0 1-1.804-1.31l-9.655-19.564c-.879-1.78-3.417-1.78-4.296 0l-9.655 19.564a2.394 2.394 0 0 1-1.804 1.31l-21.59 3.137c-1.965.286-2.749 2.7-1.328 4.086l15.623 15.228c.565.55.822 1.343.689 2.12L27.426 75h21.755a2.366 2.366 0 0 1 1.638 0z" style="fill: rgb(224, 224, 224);"></path></g></g><g class="ldl-layer"><g class="ldl-ani"><g><g class="ldl-layer"><g class="ldl-ani" style="transform-origin: 50px 50px; transform: scale(0.91); animation: 0.729927s linear -0.638686s infinite normal forwards running breath-44e900a2-aa91-4206-8ff7-fed96fb043b7;"><path fill="#f5e169" d="M51.115 75.112l19.311 10.152c1.757.924 3.811-.568 3.476-2.525L72.574 75H50.819c.099.036.201.062.296.112z" style="fill: rgb(245, 225, 105);"></path></g></g><g class="ldl-layer"><g class="ldl-ani" style="transform-origin: 50px 50px; transform: scale(0.91); animation: 0.729927s linear -0.729927s infinite normal forwards running breath-44e900a2-aa91-4206-8ff7-fed96fb043b7;"><path fill="#f5e169" d="M29.575 85.264l19.311-10.152c.095-.05.197-.076.296-.112H27.426l-1.327 7.739c-.336 1.957 1.718 3.449 3.476 2.525z" style="fill: rgb(245, 225, 105);"></path></g></g></g></g></g><metadata xmlns:d="https://loading.io/stock/">
<d:name>star</d:name>
<d:tags>star,favorite,bookmark,asteriod,rank,review,tag,percent,ratio</d:tags>
<d:license>by</d:license>
<d:slug>76s3g2</d:slug>
</metadata></g></g>
<style id="breath-44e900a2-aa91-4206-8ff7-fed96fb043b7" data-anikit="">@keyframes breath-44e900a2-aa91-4206-8ff7-fed96fb043b7
{
  0% {
    animation-timing-function: cubic-bezier(0.9647,0.2413,-0.0705,0.7911);
    transform: scale(0.9099999999999999);
  }
  51% {
    animation-timing-function: cubic-bezier(0.9226,0.2631,-0.0308,0.7628);
    transform: scale(1.02994);
  }
  100% {
    transform: scale(0.9099999999999999);
  }
}</style></svg>